<svg xmlns="http://www.w3.org/2000/svg" viewBox="0 0 320 72" role="img" aria-labelledby="title">
  <title id="title">Wick &amp; Glow</title>
  <defs>
    <linearGradient id="wg-main" x1="50%" y1="0%" x2="50%" y2="100%">
      <stop offset="0%" stop-color="#FFF59D"/>
      <stop offset="40%" stop-color="#FF8A65"/>
      <stop offset="100%" stop-color="#D84315"/>
    </linearGradient>
  </defs>
  <!-- Icon: same mark as favicon, scaled -->
  <g transform="translate(48 36) scale(0.34) translate(-64 -64)">
    <path
      d="M 64 12 C 96 14 102 62 64 116 C 26 62 32 14 64 12 Z"
      fill="url(#wg-main)"
    />
    <path
      d="M 48 30 C 38 32 34 52 38 72 C 40 82 46 78 50 68 C 52 50 50 30 48 30 Z"
      fill="#f7ede2"
    />
    <path
      d="M 40 74 Q 32 90 24 104"
      fill="none"
      stroke="#3E2723"
      stroke-width="5.5"
      stroke-linecap="round"
    />
    <path
      fill="#90A4AE"
      d="M 72 24 C 88 28 96 48 90 68 C 86 80 78 76 82 60 C 86 44 84 32 72 24 Z"
    />
    <path
      fill="none"
      stroke="#90A4AE"
      stroke-width="4"
      stroke-linecap="round"
      d="M 84 18 Q 92 14 94 22"
    />
  </g>
  <text
    x="84"
    y="46"
    font-family="Georgia, 'Times New Roman', Times, serif"
    font-size="26"
    font-weight="700"
    fill="#2c1810"
  >Wick &amp; Glow</text>
  <rect x="158" y="52" width="22" height="3" rx="1" fill="#f5cac3"/>
</svg>
